# xmcd
#
# Track frame offsets:
# 150
# 16794
# 32504
# 49851
# 67890
# 86637
# 99412
# 124578
# 136545
# 152789
# 170565
# 187801
#
# Disc length: 2725 seconds
#
#
# Revision: 0
# Processed by: cddbd v1.5.2PL0 Copyright (c) Steve Scherf et al.
# Submitted via: FreeRIP 2.96 
#
DISCID=870aa30c
DTITLE=Mountain Smoke - Sing and Dance Again
DYEAR=2006
DGENRE=Bluegrass
TTITLE0=Sing and Dance
TTITLE1=There's Nothing Like Riding On A Train
TTITLE2=Ooh La La
TTITLE3=Lost Gold
TTITLE4=In Tall Buildings
TTITLE5=Another Dusty Road
TTITLE6=Old Love
TTITLE7=Ready or Not
TTITLE8=Armadillo Suicide
TTITLE9=Mountain Smoke
TTITLE10=American Dream
TTITLE11=Shoutin' Glory
EXTD=
EXTT0=
EXTT1=
EXTT2=
EXTT3=
EXTT4=
EXTT5=
EXTT6=
EXTT7=
EXTT8=
EXTT9=
EXTT10=
EXTT11=
PLAYORDER=
